<svg preserveAspectRatio="none" overflow="visible" style="display: block;" width="21" height="20.6816" viewBox="0 0 21 20.6816" fill="none" xmlns="http://www.w3.org/2000/svg">
<g id="Weight=Line">
<path id="Vector" fill-rule="evenodd" clip-rule="evenodd" d="M9.0236 0.420877C9.9279 -0.140292 11.0721 -0.140292 11.9764 0.420877L19.6764 5.19928C20.4994 5.71001 21 6.60981 21 7.5784V17.6816C21 19.3384 19.6569 20.6816 18 20.6816H13.6921C13.4268 20.6816 13.1725 20.5762 12.9849 20.3887C12.7974 20.2011 12.692 19.9468 12.692 19.6816V14.5136C12.692 13.2984 11.7088 12.3216 10.5 12.3216C9.2848 12.3216 8.30805 13.3046 8.30805 14.5136L8.308 19.6816C8.30799 20.2338 7.86028 20.6815 7.308 20.6815H3C1.34315 20.6815 0 19.3384 0 17.6816V7.5784C0 6.60981 0.50059 5.71001 1.32359 5.19928L9.0236 0.420877ZM10.9218 2.12025C10.6635 1.96025 10.3365 1.96025 10.0782 2.12058L2.37817 6.89865C2.14303 7.04458 2 7.30166 2 7.5784V17.6816C2 18.2338 2.44771 18.6815 3 18.6815H6.30801L6.30805 14.5136C6.30805 12.2046 8.17583 10.3216 10.5 10.3216C12.809 10.3216 14.692 12.1894 14.692 14.5136V18.6816H18C18.5523 18.6816 19 18.2338 19 17.6816V7.5784C19 7.30166 18.857 7.04458 18.6218 6.89865L10.9218 2.12025Z" fill="#555D6D"/>
</g>
</svg>
